<svg width="24" height="24" viewBox="0 0 24 24" xmlns="http://www.w3.org/2000/svg" fill="currentColor">
  <g transform="translate(0 -1.3)">
    <path d="M7.6,7 C5.3,7 3.4,8.9 3.4,11.2 C3.4,13.5 5.3,15.4 7.6,15.4 C7.6,16.7 6.6,17.8 5,18.3 L5.7,20 C9,18.9 10.9,16.2 10.9,12.4 L10.9,11.2 C10.9,8.9 9.9,7 7.6,7 Z"/>
    <path d="M17,7 C14.7,7 12.8,8.9 12.8,11.2 C12.8,13.5 14.7,15.4 17,15.4 C17,16.7 16,17.8 14.4,18.3 L15.1,20 C18.4,18.9 20.3,16.2 20.3,12.4 L20.3,11.2 C20.3,8.9 19.3,7 17,7 Z"/>
  </g>
</svg>
